<svg
                  xmlns="http://www.w3.org/2000/svg"
                  width="24"
                  height="25"
                  viewBox="0 0 24 25"
                  fill="none"
                >
                  <path
                    d="M6.25 5.21387C5.56 5.21387 5 5.77387 5 6.46387V17.9639C5 18.6539 5.56 19.2139 6.25 19.2139H17.75C18.44 19.2139 19 18.6539 19 17.9639V14.2139C19 13.9487 19.1054 13.6943 19.2929 13.5068C19.4804 13.3192 19.7348 13.2139 20 13.2139C20.2652 13.2139 20.5196 13.3192 20.7071 13.5068C20.8946 13.6943 21 13.9487 21 14.2139V17.9639C21 18.8258 20.6576 19.6525 20.0481 20.262C19.4386 20.8715 18.612 21.2139 17.75 21.2139H6.25C5.38805 21.2139 4.5614 20.8715 3.9519 20.262C3.34241 19.6525 3 18.8258 3 17.9639V6.46387C3 5.60191 3.34241 4.77526 3.9519 4.16577C4.5614 3.55628 5.38805 3.21387 6.25 3.21387H10C10.2652 3.21387 10.5196 3.31922 10.7071 3.50676C10.8946 3.6943 11 3.94865 11 4.21387C11 4.47908 10.8946 4.73344 10.7071 4.92097C10.5196 5.10851 10.2652 5.21387 10 5.21387H6.25ZM14 5.21387C13.7348 5.21387 13.4804 5.10851 13.2929 4.92097C13.1054 4.73344 13 4.47908 13 4.21387C13 3.94865 13.1054 3.6943 13.2929 3.50676C13.4804 3.31922 13.7348 3.21387 14 3.21387H20C20.2652 3.21387 20.5196 3.31922 20.7071 3.50676C20.8946 3.6943 21 3.94865 21 4.21387V10.2139C21 10.4791 20.8946 10.7334 20.7071 10.921C20.5196 11.1085 20.2652 11.2139 20 11.2139C19.7348 11.2139 19.4804 11.1085 19.2929 10.921C19.1054 10.7334 19 10.4791 19 10.2139V6.62787L14.707 10.9209C14.5184 11.103 14.2658 11.2038 14.0036 11.2015C13.7414 11.1993 13.4906 11.0941 13.3052 10.9087C13.1198 10.7233 13.0146 10.4725 13.0123 10.2103C13.01 9.94807 13.1108 9.69547 13.293 9.50687L17.586 5.21387H14Z"
                    fill="#F8F7FF"
                  ></path>
                </svg>