<svg
              xmlns="http://www.w3.org/2000/svg"
              width="64"
              height="65"
              viewBox="0 0 64 65"
              fill="none"
            >
              <path
                d="M20.0001 16.7295C21.6927 16.7292 23.322 17.3728 24.5575 18.5296C25.7931 19.6864 26.5424 21.2699 26.6534 22.9588L26.6667 23.5082C26.6401 32.9882 23.3601 41.1455 16.7867 48.1028C16.608 48.3001 16.3917 48.4597 16.1505 48.5724C15.9093 48.685 15.6481 48.7483 15.3821 48.7586C15.1161 48.769 14.8507 48.7261 14.6015 48.6325C14.3523 48.539 14.1243 48.3966 13.9308 48.2138C13.7373 48.031 13.5823 47.8114 13.4748 47.5678C13.3673 47.3243 13.3095 47.0618 13.3048 46.7956C13.3 46.5295 13.3485 46.2651 13.4473 46.0179C13.5461 45.7707 13.6932 45.5457 13.8801 45.3562C18.2534 40.7242 20.9734 35.5588 22.0854 29.7322C21.1694 30.0319 20.1994 30.1295 19.242 30.0182C18.2847 29.9069 17.3629 29.5894 16.5401 29.0875C15.7173 28.5856 15.0132 27.9112 14.4761 27.1109C13.9391 26.3107 13.582 25.4035 13.4293 24.4518C13.2767 23.5002 13.3323 22.5268 13.5921 21.5987C13.8519 20.6707 14.3099 19.8099 14.9345 19.0759C15.559 18.3419 16.3353 17.752 17.2098 17.3469C18.0844 16.9419 19.0363 16.7312 20.0001 16.7295ZM44.0001 16.7295C45.6926 16.7292 47.322 17.3728 48.5575 18.5296C49.7931 19.6864 50.5424 21.2699 50.6534 22.9588L50.6667 23.5082C50.6401 33.0015 47.3654 41.1455 40.7867 48.1028C40.608 48.3001 40.3917 48.4597 40.1505 48.5724C39.9093 48.685 39.6481 48.7483 39.3821 48.7586C39.1161 48.769 38.8507 48.7261 38.6015 48.6325C38.3523 48.539 38.1243 48.3966 37.9308 48.2138C37.7373 48.031 37.5823 47.8114 37.4748 47.5678C37.3673 47.3243 37.3095 47.0618 37.3048 46.7956C37.3 46.5295 37.3485 46.2651 37.4473 46.0179C37.5461 45.7707 37.6932 45.5457 37.8801 45.3562C42.2614 40.7215 44.9787 35.5642 46.0881 29.7322C45.1722 30.0319 44.2022 30.1295 43.245 30.0182C42.2878 29.907 41.3661 29.5896 40.5434 29.0878C39.7206 28.586 39.0165 27.9119 38.4794 27.1118C37.9423 26.3117 37.585 25.4046 37.4322 24.4532C37.2795 23.5017 37.3348 22.5284 37.5943 21.6004C37.8539 20.6723 38.3116 19.8116 38.9359 19.0775C39.5601 18.3433 40.3361 17.7533 41.2104 17.3479C42.0847 16.9426 43.0364 16.7316 44.0001 16.7295ZM20.0001 20.7295C19.4859 20.7294 18.9828 20.878 18.5511 21.1573C18.1195 21.4365 17.7777 21.8347 17.5671 22.3036C17.3565 22.7726 17.2859 23.2925 17.3639 23.8007C17.4419 24.3089 17.6651 24.7837 18.0067 25.1679C18.3483 25.5521 18.7937 25.8295 19.2892 25.9664C19.7848 26.1034 20.3093 26.0942 20.7998 25.94C21.2902 25.7857 21.7256 25.493 22.0535 25.097C22.3814 24.7011 22.5879 24.2187 22.6481 23.7082L22.6667 23.3775C22.6618 22.6735 22.3787 22 21.8791 21.5039C21.3796 21.0079 20.7041 20.7295 20.0001 20.7295ZM44.0001 20.7295C43.4859 20.7294 42.9828 20.878 42.5511 21.1573C42.1195 21.4365 41.7778 21.8347 41.5671 22.3036C41.3565 22.7726 41.2859 23.2925 41.3639 23.8007C41.4419 24.3089 41.6651 24.7837 42.0067 25.1679C42.3483 25.5521 42.7937 25.8295 43.2892 25.9664C43.7848 26.1034 44.3093 26.0942 44.7998 25.94C45.2902 25.7857 45.7256 25.493 46.0535 25.097C46.3814 24.7011 46.5879 24.2187 46.6481 23.7082L46.6667 23.3775C46.6618 22.6735 46.3787 22 45.8791 21.5039C45.3796 21.0079 44.7041 20.7295 44.0001 20.7295Z"
                fill="#F8F7FF"
              ></path>
            </svg>