<svg
                  xmlns="http://www.w3.org/2000/svg"
                  width="24"
                  height="25"
                  viewBox="0 0 24 25"
                  fill="none"
                >
                  <path
                    d="M12.7847 17.7947C12.8896 17.8992 12.9728 18.0234 13.0296 18.1602C13.0864 18.2969 13.1156 18.4435 13.1156 18.5916C13.1156 18.7397 13.0864 18.8863 13.0296 19.023C12.9728 19.1598 12.8896 19.284 12.7847 19.3885L12.2279 19.9453C11.1726 21.0006 9.74144 21.5934 8.24912 21.5934C6.7568 21.5934 5.3256 21.0006 4.27037 19.9453C3.21514 18.8901 2.62231 17.4589 2.62231 15.9666C2.62231 14.4743 3.21514 13.0431 4.27037 11.9878L6.53162 9.72754C7.54551 8.71114 8.90966 8.12087 10.3446 8.07765C11.7796 8.03442 13.1768 8.54151 14.2501 9.49504C14.3609 9.59353 14.4512 9.71288 14.5159 9.84627C14.5805 9.97967 14.6183 10.1245 14.627 10.2725C14.6357 10.4205 14.6152 10.5687 14.5666 10.7088C14.518 10.8489 14.4423 10.978 14.3438 11.0888C14.2453 11.1996 14.126 11.2899 13.9926 11.3546C13.8592 11.4193 13.7143 11.457 13.5663 11.4657C13.4184 11.4744 13.2701 11.4539 13.13 11.4053C12.99 11.3567 12.8609 11.281 12.7501 11.1825C12.1065 10.611 11.2688 10.3069 10.4085 10.3325C9.54811 10.3581 8.73005 10.7115 8.12162 11.3203L5.86224 13.5778C5.2292 14.2109 4.87357 15.0695 4.87357 15.9647C4.87357 16.86 5.2292 17.7186 5.86224 18.3516C6.49528 18.9846 7.35386 19.3403 8.24912 19.3403C9.14437 19.3403 10.003 18.9846 10.636 18.3516L11.1929 17.7947C11.2973 17.6901 11.4214 17.6071 11.558 17.5505C11.6946 17.4939 11.841 17.4648 11.9888 17.4648C12.1366 17.4648 12.283 17.4939 12.4196 17.5505C12.5562 17.6071 12.6803 17.6901 12.7847 17.7947ZM19.7297 4.48222C18.6737 3.42862 17.2428 2.83691 15.751 2.83691C14.2592 2.83691 12.8283 3.42862 11.7722 4.48222L11.2154 5.0391C11.004 5.25044 10.8853 5.53709 10.8853 5.83597C10.8853 6.13486 11.004 6.4215 11.2154 6.63285C11.4267 6.84419 11.7134 6.96292 12.0122 6.96292C12.3111 6.96292 12.5978 6.84419 12.8091 6.63285L13.366 6.07597C13.999 5.44293 14.8576 5.0873 15.7529 5.0873C16.6481 5.0873 17.5067 5.44293 18.1397 6.07597C18.7728 6.70901 19.1284 7.5676 19.1284 8.46285C19.1284 9.3581 18.7728 10.2167 18.1397 10.8497L15.8794 13.111C15.2705 13.7196 14.4519 14.0724 13.5914 14.0973C12.7308 14.1223 11.8932 13.8174 11.2501 13.245C11.1393 13.1465 11.0101 13.0708 10.8701 13.0222C10.73 12.9737 10.5818 12.9531 10.4338 12.9618C10.2858 12.9705 10.1409 13.0083 10.0075 13.073C9.87415 13.1377 9.7548 13.228 9.6563 13.3388C9.55781 13.4496 9.48211 13.5787 9.43352 13.7188C9.38493 13.8588 9.3644 14.0071 9.3731 14.1551C9.38181 14.3031 9.41958 14.4479 9.48425 14.5813C9.54893 14.7147 9.63925 14.834 9.75005 14.9325C10.8225 15.8858 12.2188 16.3933 13.6531 16.3509C15.0874 16.3086 16.4513 15.7197 17.4657 14.7047L19.7269 12.4444C20.7818 11.3886 21.3745 9.95731 21.375 8.46484C21.3756 6.97236 20.7838 5.54068 19.7297 4.4841V4.48222Z"
                    fill="#F8F7FF"
                  ></path>
                </svg>